HIERARCHY
ROOT Pelvis
{
	OFFSET 0.000000 0.000000 0.000000
	CHANNELS 6 Xposition Yposition Zposition Xrotation Yrotation Zrotation
	JOINT LeftUpLeg_virtual
	{
		OFFSET 0.000000 0.000000 0.000000
		CHANNELS 3 Xrotation Yrotation Zrotation
		JOINT LeftUpLeg
		{
			OFFSET 18.735201 -5.666702 -4.541200
			CHANNELS 3 Xrotation Yrotation Zrotation
			JOINT LeftLeg
			{
				OFFSET -0.021200 -31.938179 0.493100
				CHANNELS 3 Xrotation Yrotation Zrotation
				JOINT LeftFoot
				{
					OFFSET 0.021200 -31.938179 -4.336299
					CHANNELS 3 Xrotation Yrotation Zrotation
					JOINT LeftToeBase
					{
						OFFSET 0.943001 -26.722000 15.023500
						CHANNELS 3 Xrotation Yrotation Zrotation
						End Site
						{
							OFFSET 0 0 0
						}
					}
				}
			}
		}
	}
	JOINT RightUpLeg_virtual
	{
		OFFSET 0.000000 0.000000 0.000000
		CHANNELS 3 Xrotation Yrotation Zrotation
		JOINT RightUpLeg
		{
			OFFSET -18.735201 -5.666702 -4.541200
			CHANNELS 3 Xrotation Yrotation Zrotation
			JOINT RightLeg
			{
				OFFSET 0.018946 -31.938133 0.493100
				CHANNELS 3 Xrotation Yrotation Zrotation
				JOINT RightFoot
				{
					OFFSET -0.018946 -31.938126 -4.336299
					CHANNELS 3 Xrotation Yrotation Zrotation
					JOINT RightToeBase
					{
						OFFSET -0.943001 -26.722004 15.023500
						CHANNELS 3 Xrotation Yrotation Zrotation
						End Site
						{
							OFFSET 0 0 0
						}
					}
				}
			}
		}
	}
	JOINT Hips_virtual
	{
		OFFSET 0.000000 0.000000 0.000000
		CHANNELS 3 Xrotation Yrotation Zrotation
		JOINT Hips
		{
			OFFSET -0.000000 -0.000000 -0.000000
			CHANNELS 3 Xrotation Yrotation Zrotation
			JOINT Spine
			{
				OFFSET 0.000000 10.199997 -0.299500
				CHANNELS 3 Xrotation Yrotation Zrotation
				JOINT Spine1
				{
					OFFSET 0.000000 11.900002 -1.516600
					CHANNELS 3 Xrotation Yrotation Zrotation
					JOINT Spine2
					{
						OFFSET 0.000000 13.600006 -2.842500
						CHANNELS 3 Xrotation Yrotation Zrotation
						JOINT Neck_virtual
						{
							OFFSET 0.000000 0.000000 0.000000
							CHANNELS 3 Xrotation Yrotation Zrotation
							JOINT Neck
							{
								OFFSET 0.000000 9.624100 -2.890100
								CHANNELS 3 Xrotation Yrotation Zrotation
								JOINT Head
								{
									OFFSET 0.000000 14.068802 -1.351900
									CHANNELS 3 Xrotation Yrotation Zrotation
									End Site
									{
										OFFSET 0 0 0
									}
								}
							}
						}
						JOINT LeftShoulder_virtual
						{
							OFFSET 0.000000 0.000000 0.000000
							CHANNELS 3 Xrotation Yrotation Zrotation
							JOINT LeftShoulder
							{
								OFFSET 15.263000 10.923401 -0.547700
								CHANNELS 3 Xrotation Yrotation Zrotation
								JOINT LeftArm
								{
									OFFSET 25.438599 -2.830597 -13.032500
									CHANNELS 3 Xrotation Yrotation Zrotation
									JOINT LeftForeArm
									{
										OFFSET 29.960503 0.000000 0.000000
										CHANNELS 3 Xrotation Yrotation Zrotation
										JOINT LeftHand
										{
											OFFSET 27.849251 0.000000 0.000000
											CHANNELS 3 Xrotation Yrotation Zrotation
											End Site
											{
												OFFSET 0 0 0
											}
										}
									}
								}
							}
						}
						JOINT RightShoulder_virtual
						{
							OFFSET 0.000000 0.000000 0.000000
							CHANNELS 3 Xrotation Yrotation Zrotation
							JOINT RightShoulder
							{
								OFFSET -15.263000 10.923401 -0.547700
								CHANNELS 3 Xrotation Yrotation Zrotation
								JOINT RightArm
								{
									OFFSET -25.438599 -2.830597 -13.032500
									CHANNELS 3 Xrotation Yrotation Zrotation
									JOINT RightForeArm
									{
										OFFSET -29.960503 0.000000 0.000000
										CHANNELS 3 Xrotation Yrotation Zrotation
										JOINT RightHand
										{
											OFFSET -27.849251 0.000000 0.000000
											CHANNELS 3 Xrotation Yrotation Zrotation
											End Site
											{
												OFFSET 0 0 0
											}
										}
									}
								}
							}
						}
					}
				}
			}
		}
	}
}
MOTION
Frames: 6
Frame Time: 0.03333333
0.895207 79.251122 2.871361 0.000000 0.000000 0.000000 -4.705129 -52.130910 14.128252 -20.232458 30.929251 -0.406370 57.702586 5.537521 5.157239 -25.536242 20.737699 -2.084608 0.000000 0.000000 0.000000 -5.808766 -50.689388 13.085707 -38.392405 13.982937 -35.077109 77.649183 7.291948 -9.640315 -32.575860 -9.905254 23.745417 0.000000 0.000000 0.000000 -6.056900 -51.094804 13.822009 -0.472647 -0.387189 -1.097456 0.967202 -3.157398 9.282157 0.180566 -2.773991 4.590197 0.000000 0.000000 0.000000 -0.443964 -2.874849 4.125530 -3.974536 1.478086 3.046242 0.000000 0.000000 0.000000 0.459195 -2.508669 4.163093 -0.070781 -0.849775 14.962194 -34.431619 -33.370187 -47.760385 2.609469 -79.506038 2.476898 0.000000 0.000000 0.000000 0.199266 -2.208211 4.334917 0.366951 -5.148223 7.396414 108.068237 78.049719 -70.817403 2.681472 30.981246 -3.615950 0.000000 0.000000 0.000000 
1.713356 79.572792 3.227818 0.000000 0.000000 0.000000 -2.918931 -50.894011 15.799809 -21.018599 30.195672 -1.626947 56.372806 5.182587 4.920804 -24.992272 20.353199 -1.469669 0.000000 0.000000 0.000000 -4.116897 -49.410917 14.672903 -39.938370 13.880320 -35.014497 76.941494 6.818142 -9.454272 -31.558145 -9.779227 23.426922 0.000000 0.000000 0.000000 -4.423700 -49.856303 15.379371 -0.436439 -0.477230 -1.175236 0.905343 -2.713878 9.315598 0.313025 -2.479335 4.504456 0.000000 0.000000 0.000000 -0.348856 -2.604678 4.041436 -3.739685 1.520820 2.692637 0.000000 0.000000 0.000000 0.505788 -2.233505 4.128546 -0.037403 -0.885812 14.613620 -33.214605 -33.748016 -47.106035 3.688463 -82.191491 3.700302 0.000000 0.000000 0.000000 0.273379 -1.923643 4.279763 0.367978 -5.268475 8.013179 106.957532 77.695792 -70.100082 3.175988 30.338409 -4.034507 0.000000 0.000000 0.000000 
2.526247 80.105408 3.419495 0.000000 0.000000 0.000000 -1.146032 -49.510907 17.391810 -21.653677 29.593970 -2.834025 54.355007 4.773711 4.632984 -24.224936 19.691116 -1.295186 0.000000 0.000000 0.000000 -2.442989 -48.041607 16.187557 -41.739651 13.456432 -34.862249 75.658429 6.486202 -9.253022 -29.901728 -9.231368 23.397476 0.000000 0.000000 0.000000 -2.749076 -48.552123 16.850340 -0.349781 -0.554781 -1.233173 1.005704 -2.220717 9.369872 0.440792 -2.167402 4.407726 0.000000 0.000000 0.000000 -0.292845 -2.308972 3.950455 -3.535186 1.548212 2.357845 0.000000 0.000000 0.000000 0.603548 -1.937113 4.100150 -0.059722 -0.702779 14.006653 -31.056887 -33.964157 -46.179189 6.139005 -84.590500 6.263239 0.000000 0.000000 0.000000 0.396927 -1.611420 4.243074 0.337883 -5.242257 8.350866 106.093164 76.921317 -69.828186 3.489865 29.696201 -4.353512 0.000000 0.000000 0.000000 
3.293889 80.783150 3.456024 0.000000 0.000000 0.000000 0.434916 -47.964921 18.680181 -22.135970 29.047705 -3.913440 51.880659 4.349490 4.381572 -23.190864 18.846034 -1.387946 0.000000 0.000000 0.000000 -0.912932 -46.616318 17.438760 -43.546001 12.770558 -34.567574 73.777600 6.406828 -9.156844 -27.718125 -8.219847 23.731743 0.000000 0.000000 0.000000 -1.159447 -47.151084 18.048334 -0.241531 -0.517347 -1.291701 1.277464 -1.705420 9.373056 0.573209 -1.851035 4.286476 0.000000 0.000000 0.000000 -0.255162 -2.010238 3.847884 -3.368904 1.554158 2.091968 0.000000 0.000000 0.000000 0.745225 -1.646062 4.054734 -0.124264 -0.351207 13.269943 -28.675105 -33.949653 -45.226705 10.858210 -86.304720 11.067966 0.000000 0.000000 0.000000 0.592527 -1.296437 4.191500 0.277081 -5.129441 8.440234 105.990261 75.743116 -70.579528 3.594658 28.980042 -4.557035 0.000000 0.000000 0.000000 
3.971323 81.534187 3.366974 0.000000 0.000000 0.000000 1.669019 -46.332892 19.470083 -22.460239 28.576747 -4.741249 49.227745 3.963778 4.202504 -21.754484 17.917198 -1.632467 0.000000 0.000000 0.000000 0.336029 -45.074874 18.240480 -45.178150 11.786530 -34.174291 71.522872 6.543603 -9.176150 -25.345951 -6.893760 24.142511 0.000000 0.000000 0.000000 0.169234 -45.660648 18.808540 -0.146856 -0.433202 -1.311276 1.689315 -1.217959 9.293036 0.723562 -1.549475 4.150220 0.000000 0.000000 0.000000 -0.215589 -1.730161 3.744099 -3.236361 1.538412 1.932289 0.000000 0.000000 0.000000 0.918832 -1.376382 3.991496 -0.209984 0.112250 12.585378 -26.967721 -33.680356 -44.540985 17.046651 -87.191668 17.297497 0.000000 0.000000 0.000000 0.847604 -1.007541 4.109685 0.187688 -4.972378 8.316453 107.079983 74.383984 -72.834234 3.504356 28.016437 -4.623464 0.000000 0.000000 0.000000 
4.549828 82.253731 3.229794 0.000000 0.000000 0.000000 2.448950 -44.601870 19.634017 -22.843756 28.244415 -5.161708 46.836475 3.655334 4.089261 -19.986131 16.984792 -1.807469 0.000000 0.000000 0.000000 1.168502 -43.396754 18.437764 -46.517215 10.416478 -33.746527 69.223025 6.814547 -9.239877 -23.153163 -5.492736 24.264032 0.000000 0.000000 0.000000 1.095002 -44.094486 19.023383 -0.100574 -0.285573 -1.211495 2.162684 -0.811543 9.113538 0.887796 -1.277831 4.016719 0.000000 0.000000 0.000000 -0.133669 -1.488769 3.657855 -3.111431 1.498727 1.880050 0.000000 0.000000 0.000000 1.096596 -1.146190 3.917166 -0.312857 0.619673 12.037012 -26.519879 -33.293504 -44.290215 19.209272 -87.194673 19.478453 0.000000 0.000000 0.000000 1.129182 -0.765546 4.005031 0.096944 -4.831240 8.022000 109.429828 73.263614 -76.597532 3.281975 26.775388 -4.604799 0.000000 0.000000 0.000000 
